<svg width="45" height="45" viewBox="0 0 45 45" fill="none" xmlns="http://www.w3.org/2000/svg">
<circle cx="22.5" cy="22.5" r="22.5" fill="#F9DDE0"/>
<path d="M23.5791 13.8198C23.2859 12.7518 21.7532 12.702 21.4209 13.8198C19.6936 19.6741 16 21.265 16 25.3912C16 29.0442 18.9073 32 22.5 32C26.0927 32 29 29.0442 29 25.3912C29 21.2442 25.3146 19.7008 23.5791 13.8198V13.8198ZM22.5 29.625C20.2195 29.625 18.3636 27.7603 18.3636 25.4688C18.3636 25.1407 18.6281 24.875 18.9545 24.875C19.281 24.875 19.5455 25.1407 19.5455 25.4688C19.5455 27.1056 20.8709 28.4375 22.5 28.4375C22.8265 28.4375 23.0909 28.7032 23.0909 29.0313C23.0909 29.3593 22.8265 29.625 22.5 29.625Z" fill="#FF98A2"/>
</svg>

