
<svg width="45" height="45" viewBox="0 0 45 45" fill="none" xmlns="http://www.w3.org/2000/svg">
<circle cx="22.5" cy="22.5" r="22.5" fill="#1CA0F4" fill-opacity="0.3"/>
<path d="M29.5916 17.1554C28.3225 17.174 27.2797 18.2094 27.2537 19.4786C27.2352 20.3804 27.7176 21.1709 28.4412 21.5865V25.7653C28.4412 27.8918 26.5783 29.6249 24.285 29.6249C22.0584 29.6249 20.2326 27.9883 20.1324 25.9434C22.834 25.3867 24.875 22.9894 24.875 20.1244V14.3572C24.875 13.9342 24.5744 13.5668 24.1588 13.4851L21.8246 13.0175C21.3422 12.921 20.8746 13.2328 20.7781 13.7152L20.6594 14.2979C20.5629 14.7803 20.8746 15.2479 21.357 15.3444L22.4963 15.5708V20.0761C22.4963 22.0393 20.9303 23.6648 18.9672 23.6833C16.9855 23.7019 15.3713 22.0987 15.3713 20.1206V15.5745L16.5105 15.3481C16.993 15.2516 17.3047 14.784 17.2082 14.3016L17.0932 13.7189C16.9967 13.2365 16.5291 12.9247 16.0467 13.0212L13.7162 13.4814C13.3006 13.5668 13 13.9305 13 14.3572V20.1244C13 22.9931 15.0447 25.3942 17.7537 25.9434C17.8502 29.2983 20.741 32 24.2812 32C27.8809 32 30.8125 29.2018 30.8125 25.7653V21.5865C31.5213 21.1746 32 20.4101 32 19.5306C32 18.2057 30.9164 17.1369 29.5916 17.1554ZM29.625 20.1244C29.2984 20.1244 29.0312 19.8572 29.0312 19.5306C29.0312 19.204 29.2984 18.9368 29.625 18.9368C29.9516 18.9368 30.2188 19.204 30.2188 19.5306C30.2188 19.8572 29.9516 20.1244 29.625 20.1244Z" fill="#1CA0F4" fill-opacity="0.7"/>
</svg>