<svg width="14" height="16" viewBox="0 0 14 16" fill="none" xmlns="http://www.w3.org/2000/svg">
<path d="M13.625 5H0.375C0.16875 5 0 4.83125 0 4.625V3.5C0 2.67188 0.671875 2 1.5 2H3V0.375C3 0.16875 3.16875 0 3.375 0H4.625C4.83125 0 5 0.16875 5 0.375V2H9V0.375C9 0.16875 9.16875 0 9.375 0H10.625C10.8313 0 11 0.16875 11 0.375V2H12.5C13.3281 2 14 2.67188 14 3.5V4.625C14 4.83125 13.8313 5 13.625 5ZM0.375 6H13.625C13.8313 6 14 6.16875 14 6.375V14.5C14 15.3281 13.3281 16 12.5 16H1.5C0.671875 16 0 15.3281 0 14.5V6.375C0 6.16875 0.16875 6 0.375 6ZM4 12.375C4 12.1687 3.83125 12 3.625 12H2.375C2.16875 12 2 12.1687 2 12.375V13.625C2 13.8313 2.16875 14 2.375 14H3.625C3.83125 14 4 13.8313 4 13.625V12.375ZM4 8.375C4 8.16875 3.83125 8 3.625 8H2.375C2.16875 8 2 8.16875 2 8.375V9.625C2 9.83125 2.16875 10 2.375 10H3.625C3.83125 10 4 9.83125 4 9.625V8.375ZM8 12.375C8 12.1687 7.83125 12 7.625 12H6.375C6.16875 12 6 12.1687 6 12.375V13.625C6 13.8313 6.16875 14 6.375 14H7.625C7.83125 14 8 13.8313 8 13.625V12.375ZM8 8.375C8 8.16875 7.83125 8 7.625 8H6.375C6.16875 8 6 8.16875 6 8.375V9.625C6 9.83125 6.16875 10 6.375 10H7.625C7.83125 10 8 9.83125 8 9.625V8.375ZM12 12.375C12 12.1687 11.8313 12 11.625 12H10.375C10.1687 12 10 12.1687 10 12.375V13.625C10 13.8313 10.1687 14 10.375 14H11.625C11.8313 14 12 13.8313 12 13.625V12.375ZM12 8.375C12 8.16875 11.8313 8 11.625 8H10.375C10.1687 8 10 8.16875 10 8.375V9.625C10 9.83125 10.1687 10 10.375 10H11.625C11.8313 10 12 9.83125 12 9.625V8.375Z" fill="#1C3048"/>
</svg>
