<svg width="14" height="14" viewBox="0 0 14 14" fill="none" xmlns="http://www.w3.org/2000/svg">
<path d="M14 7C14 10.866 10.866 14 7 14C3.134 14 0 10.866 0 7C0 3.134 3.134 0 7 0C10.866 0 14 3.134 14 7ZM6.19031 10.7064L11.3839 5.51289C11.5602 5.33654 11.5602 5.05058 11.3839 4.87423L10.7452 4.23556C10.5688 4.05918 10.2829 4.05918 10.1065 4.23556L5.87097 8.47107L3.8935 6.4936C3.71714 6.31725 3.43119 6.31725 3.2548 6.4936L2.61614 7.13227C2.43978 7.30862 2.43978 7.59458 2.61614 7.77093L5.55162 10.7064C5.728 10.8828 6.01393 10.8828 6.19031 10.7064Z" fill="#47B881"/>
</svg>
