<svg width="172" height="63" viewBox="0 0 172 63" fill="none" xmlns="http://www.w3.org/2000/svg">
<g clip-path="url(#clip0)">
<path d="M58.7187 45.1511C57.2479 44.951 56.1059 44.6053 54.8178 43.9594C51.867 42.4949 50.186 39.6839 50.0216 35.9633C49.8663 32.5247 50.8529 28.8769 52.6161 26.3935C54.8635 23.2096 58.4264 21.4448 62.1355 21.6722C64.3372 21.7996 65.7623 22.4727 66.749 23.8463C67.2788 24.5832 67.425 24.938 67.5895 25.8567C67.9366 27.849 67.562 29.9958 66.749 30.6326C66.0547 31.1693 64.8579 31.2512 64.1727 30.7963C63.6337 30.4415 63.5332 30.0686 63.7068 28.977C63.8986 27.7125 63.8712 26.6755 63.6337 26.2206C62.912 24.8561 60.9113 24.6196 58.8375 25.6566C57.9879 26.0842 56.7911 27.1576 56.2064 28.0036C55.7405 28.6859 55.1832 29.8139 54.8909 30.6599C54.3793 32.1427 54.1783 35.4357 54.498 37.0095C54.763 38.2921 55.503 39.5475 56.4622 40.3116C56.9555 40.7028 58.1523 41.2577 58.9928 41.4669C59.9429 41.7216 61.8157 41.8035 63.0216 41.6579C64.2275 41.5124 66.2556 40.9939 67.827 40.4481L68.0645 40.3571V39.3292C68.0736 37.8009 68.3203 36.7002 68.9233 35.5085C69.3161 34.7353 69.6084 34.3623 70.4124 33.6254C71.262 32.8613 72.139 32.4156 73.1713 32.2336C74.4869 31.9971 75.5466 32.1245 76.5607 32.6339C77.1545 32.9341 78.0498 33.8438 78.47 34.5624C78.7715 35.0809 79.1187 36.0907 79.1917 36.6547C79.2648 37.1823 79.274 37.1823 80.5347 36.9549C81.229 36.8275 81.3569 36.7729 81.4848 36.5637C82.0512 35.654 82.645 34.8171 82.9465 34.5078C84.463 32.9341 86.1623 32.1063 87.8798 32.0972C88.6837 32.0972 88.8938 32.1972 89.1131 32.7158L89.2958 33.1433L90.182 33.116C90.9768 33.0887 91.0955 33.1069 91.3696 33.298C91.5432 33.4162 91.7259 33.6345 91.7716 33.7801C91.8903 34.1167 91.7624 35.1537 91.3879 37.0549C91.1047 38.4559 90.8945 39.7476 90.7849 40.6755C90.6844 41.5852 91.0224 42.1219 91.6254 41.9763C91.9177 41.8945 92.6303 41.3668 93.1328 40.8574L93.4708 40.5117L93.5256 39.1563C93.5896 37.2915 93.8819 36.2817 94.7132 35.0082C95.1883 34.2713 95.8004 33.6709 96.65 33.0978C97.4722 32.552 98.1391 32.2973 99.0161 32.2063C100.834 32.0062 102.077 32.5793 102.689 33.9074C102.89 34.3168 102.935 34.5806 102.963 35.2629C103.008 36.2999 102.89 36.8093 102.469 37.4461C102.232 37.81 102.04 37.9828 101.729 38.1193C101.218 38.3467 100.533 38.3103 100.167 38.0374C99.7835 37.7463 99.7287 37.4461 99.9206 36.4818C100.076 35.7177 100.076 35.5995 99.9571 35.3811C99.8566 35.1992 99.747 35.1355 99.4547 35.1173C99.144 35.0991 99.007 35.1446 98.6781 35.3902C97.9016 35.9815 97.39 37.0186 97.2073 38.374C96.988 40.0751 97.4539 41.3396 98.5319 41.9036C98.9522 42.1128 99.1075 42.1492 99.8292 42.1492C100.524 42.1401 100.752 42.1037 101.273 41.8854C102.022 41.5761 103.036 40.9211 103.675 40.348L104.132 39.9296L104.242 37.4461C104.452 32.6248 105.155 28.695 106.507 24.8197C106.836 23.8645 107.658 22.127 108.033 21.5994C108.791 20.5078 109.915 19.5435 110.682 19.3161C111.368 19.116 112.427 19.1342 112.902 19.3707C113.706 19.7528 114.437 20.808 114.666 21.8905C114.894 22.9912 114.72 24.9016 114.254 26.3844C113.962 27.3031 112.711 29.9048 112.281 30.4688C112.117 30.6872 111.779 31.1511 111.532 31.4968C110.874 32.4247 109.732 33.8347 108.727 34.9718L107.841 35.9815L107.805 37.0186L107.777 38.0647L108.271 37.1004C109.897 33.9256 111.861 32.1881 113.862 32.1699C114.592 32.1609 115.022 32.2973 115.342 32.6248C116.008 33.3161 115.963 34.4169 115.095 38.5104C114.574 40.9393 114.565 41.667 115.049 41.9218C115.634 42.2401 116.255 41.7762 118.493 39.3474C118.914 38.9016 119.133 38.7924 119.571 38.847C120.019 38.8925 120.247 39.3564 120.247 40.1934C120.247 41.0576 120.101 41.5033 119.581 42.1765C118.859 43.1043 117.498 44.196 116.328 44.7873C115.387 45.2603 113.889 45.424 112.975 45.1511C111.578 44.7418 110.893 43.3227 111.121 41.3032C111.167 40.9029 111.322 39.9114 111.477 39.0926C111.861 37.0004 111.861 37.0186 111.797 36.8275C111.706 36.5455 111.532 36.6092 111.075 37.064C110.6 37.5371 110.034 38.4468 109.705 39.2473C109.586 39.5384 109.358 40.0933 109.202 40.4663C109.038 40.8392 108.746 41.7034 108.545 42.3766C108.006 44.1414 107.768 44.5416 106.982 44.9692C106.608 45.1693 106.352 45.233 105.813 45.2694C105.21 45.2967 105.091 45.2785 104.808 45.0875C104.507 44.8873 104.379 44.6508 104.196 43.9504L104.123 43.6502L103.438 44.0595C100.597 45.7606 97.2804 45.6878 95.1243 43.8958L94.5305 43.4045L94.2108 43.6411C94.0372 43.7684 93.7175 44.0231 93.5165 44.196C92.3928 45.1602 90.9768 45.515 89.8987 45.1056C89.2775 44.8782 88.8299 44.5053 88.3548 43.8321L87.9711 43.2863L87.3864 43.9231C86.9388 44.4052 86.6282 44.6417 86.0983 44.8964C85.4314 45.233 85.3766 45.2421 84.4448 45.2421C83.1384 45.233 82.5994 45.0329 81.7954 44.2142C80.9184 43.3318 80.5986 42.4676 80.5986 40.9848V40.1024L79.9409 40.157C79.1187 40.2297 78.9816 40.2934 78.9085 40.6664C78.7989 41.1758 78.3421 42.1674 77.9676 42.7132C76.8713 44.3051 75.4644 45.142 73.6921 45.2603C72.139 45.3695 70.9879 44.9601 69.7729 43.8867C69.5719 43.7047 69.38 43.5592 69.3526 43.5592C69.3161 43.5592 68.8685 43.7047 68.3477 43.8867C66.5845 44.4962 66.0912 44.6326 64.867 44.8691C62.6836 45.2967 60.4728 45.3967 58.7187 45.1511ZM85.7877 42.1583C86.0892 41.9945 86.5368 41.5306 86.8018 41.0848C86.9388 40.8574 87.1855 39.8568 87.5874 37.9191C87.9163 36.3636 88.1812 35.0536 88.1812 35.0082C88.1812 34.8535 87.7884 34.9081 87.3134 35.1355C86.3724 35.5722 85.2578 36.8366 84.7736 38.0101C84.2438 39.3019 84.0702 40.9211 84.3899 41.5943C84.6731 42.1947 85.267 42.4312 85.7877 42.1583ZM74.5326 41.8126C75.0624 41.4487 75.5283 40.7937 75.7202 40.1388L75.8572 39.6475L75.373 39.1745C74.5234 38.3285 74.1123 37.3006 74.1123 35.9906C74.1123 35.1992 74.094 35.181 73.5276 35.4175C72.7785 35.7268 72.139 36.6547 71.8649 37.8009C71.664 38.6287 71.737 40.157 71.9928 40.7392C72.5501 42.0218 73.5733 42.4494 74.5326 41.8126ZM109.166 30.7417C109.385 30.4597 109.906 29.5501 110.335 28.7222C111.486 26.4753 111.897 25.0471 111.824 23.5461C111.788 22.7547 111.651 22.3181 111.368 22.1452C111.249 22.0725 111.157 22.0997 110.966 22.2726C110.628 22.5819 109.869 24.2011 109.705 24.9653C109.623 25.3109 109.422 26.1478 109.239 26.821C108.937 27.9581 108.462 30.3506 108.325 31.4149L108.261 31.8698L108.526 31.5605C108.663 31.3876 108.956 31.0237 109.166 30.7417Z" fill="black"/>
<path d="M122.139 45.1693C121.243 44.8873 121.015 44.2687 121.097 42.3856C121.152 41.1939 121.252 40.5117 122.065 35.6904C122.659 32.1608 122.988 29.5227 123.134 27.2303C123.235 25.6565 122.942 25.1289 122.093 25.3563C121.179 25.5928 120.156 26.4025 119.06 27.7397C118.649 28.2309 118.238 28.6767 118.146 28.7313C118.055 28.7767 117.799 28.8222 117.58 28.8222C117.26 28.8222 117.123 28.7677 116.94 28.5766C115.899 27.485 116.712 25.6747 119.233 23.4824C120.659 22.2452 121.938 21.7085 123.491 21.6903C124.879 21.6812 125.482 21.9268 126.067 22.7455C126.56 23.4278 126.761 24.0919 126.807 25.2108C126.843 26.075 126.725 27.5942 126.588 28.14C126.56 28.24 126.807 27.7761 127.136 27.112C127.931 25.511 128.561 24.574 129.438 23.6734C130.626 22.4635 132.042 21.7813 133.595 21.663C135.385 21.5266 136.728 22.2634 137.441 23.7735C137.834 24.6286 137.962 25.2745 137.971 26.5025V27.5942L138.61 26.3388C139.414 24.7468 139.606 24.483 140.547 23.5824C141.853 22.3362 143.077 21.7722 144.695 21.663C148.349 21.4265 149.792 24.0282 148.879 29.2316C148.796 29.6773 148.385 31.6877 147.947 33.689C146.978 38.2284 146.896 38.6741 146.942 39.7112C146.978 40.4662 147.006 40.5936 147.252 40.9392C147.618 41.4669 148.157 41.7489 148.769 41.7489C149.436 41.7489 149.938 41.5487 150.779 40.9483L151.51 40.4298L151.473 39.9204C151.354 38.2739 151.875 36.0724 152.661 34.9171C153.392 33.8437 154.826 32.743 155.95 32.3973C156.187 32.3245 156.69 32.2335 157.064 32.1972C159.467 31.9425 161.084 33.0614 161.367 35.1809C161.568 36.6637 161.093 38.0191 160.006 39.0926C159.175 39.9113 158.553 40.2479 156.891 40.8028L155.465 41.2667L155.813 41.5851C156.635 42.3674 158.133 42.5039 159.577 41.9399C160.728 41.485 161.751 40.8028 162.838 39.7657L163.825 38.8197L164.245 38.847C164.912 38.8924 165.04 39.129 165.031 40.2661C165.031 40.8483 164.976 41.2758 164.893 41.4941C164.4 42.6585 161.714 44.4688 159.668 45.0237C158.69 45.2966 156.507 45.3239 155.602 45.0783C154.753 44.8509 153.821 44.3687 153.127 43.8047L152.524 43.3044L151.802 43.8593C151.409 44.1595 150.834 44.5234 150.532 44.6598C148.86 45.4422 146.86 45.4877 145.389 44.7781C144.018 44.114 143.151 42.9678 142.858 41.4396C142.529 39.7294 142.739 38.2011 144.092 32.2335C144.85 28.9041 145.005 28.0672 145.005 27.3213C145.005 26.4661 144.886 26.1023 144.503 25.7293C144.201 25.4382 144.128 25.4109 143.653 25.42C143.004 25.42 142.511 25.6656 141.826 26.3115C140.428 27.6305 139.551 29.1861 138.564 32.1153C137.605 34.9808 137.011 37.628 136.427 41.576C136.116 43.6592 135.842 44.578 135.44 44.8964C135.093 45.1784 134.408 45.3148 133.659 45.2693C132.919 45.2148 132.645 45.051 132.361 44.5052C132.133 44.0776 132.06 42.6403 132.197 41.5578C132.517 39.1926 132.645 38.3739 133.01 36.4181C134.7 27.3576 134.755 26.175 133.576 25.5656C132.718 25.1198 131.64 25.5474 130.342 26.8573C129.465 27.7306 129.237 28.1309 128.132 30.5961C127.264 32.5156 126.25 36.0906 125.875 38.5559C125.391 41.6943 125.071 43.5773 124.934 44.0049C124.742 44.6235 124.359 45.0692 123.92 45.1966C123.481 45.3148 122.577 45.3057 122.139 45.1693ZM155.858 38.5559C156.717 38.2193 157.558 37.6371 157.914 37.1277C158.553 36.2271 158.206 35.0809 157.302 35.0809C156.37 35.09 155.484 36.0906 155.191 37.4551C155.054 38.101 155.009 38.8288 155.1 38.8288C155.127 38.8288 155.465 38.7014 155.858 38.5559Z" fill="black"/>
<path d="M4.01542 56.4864C3.94548 56.3818 3.8493 56.5561 5.2745 54.3867C8.20359 49.9435 9.17412 48.4537 9.16538 48.4015C9.15664 48.3666 8.74569 48.0704 8.24731 47.7393C7.57405 47.2863 6.97949 46.781 5.96524 45.7617C4.55753 44.359 3.69191 43.2787 3.00992 42.1113C2.80881 41.7541 2.50279 41.2226 2.33666 40.9351C1.96069 40.2817 1.17377 38.4347 0.88523 37.5199C-0.0765613 34.4881 -0.26892 30.6896 0.378104 27.4835C1.09508 23.9464 2.9662 20.3918 5.51932 17.7171C8.30851 14.7986 11.9021 12.7773 15.9679 11.8364C18.3986 11.2788 22.6392 11.3398 25.0175 11.9671C29.1444 13.0648 32.4757 15.0338 35.2037 18.0046C35.7283 18.5709 36.2442 19.1634 36.3491 19.3202C38.4126 22.3346 39.4793 24.713 40.0651 27.5619C40.2924 28.6945 40.3012 28.8339 40.3012 31.4824C40.3012 34.1135 40.2924 34.279 40.0651 35.4464C39.7591 37.0146 39.1383 38.8529 38.4476 40.2381C38.0279 41.0745 37.0661 42.6863 36.5502 43.4181C36.0518 44.1151 34.4955 45.8139 33.49 46.7549C32.9479 47.2602 30.3073 49.0287 29.4592 49.4469C28.2263 50.0655 26.6787 50.6666 25.7607 50.8844C24.7639 51.1197 22.0359 51.8428 19.3604 52.5746C18.4685 52.8273 17.2357 53.1496 16.6061 53.3064C15.9854 53.4632 15.0148 53.7072 14.464 53.8553C13.9131 54.0034 13.0825 54.2125 12.6278 54.3083C12.1732 54.4129 11.054 54.7091 10.1359 54.9617C9.22659 55.2144 8.20359 55.4932 7.87133 55.5629C7.53908 55.6413 6.58603 55.9027 5.74665 56.1379C4.05914 56.6171 4.09412 56.6083 4.01542 56.4864ZM27.1072 39.2188C26.976 37.276 26.3552 35.49 25.2798 33.9392C24.5103 32.8328 23.6097 32.2055 22.0709 31.7351C21.214 31.465 19.3779 31.4388 18.486 31.6828C17.7428 31.8832 16.5275 32.4756 16.0553 32.8589C15.5744 33.251 14.6388 34.5839 14.2541 35.429C13.6683 36.701 13.2399 38.5393 13.2399 39.7851V40.1075H20.1998H27.1684L27.1072 39.2188ZM21.4676 29.2521C22.1321 29.0517 22.5605 28.7816 23.1376 28.1979C23.9245 27.3877 24.3704 26.3596 24.3704 25.3403C24.3617 23.8592 23.6709 22.6395 22.3332 21.7683C21.625 21.3066 20.9954 21.1149 20.191 21.1149C19.0981 21.1149 18.2062 21.5069 17.2532 22.3956C16.3176 23.2668 15.8105 24.6956 16.0291 25.8717C16.3089 27.379 17.4718 28.7468 18.8707 29.2347C19.4566 29.435 20.8118 29.4437 21.4676 29.2521Z" fill="black"/>
</g>
<defs>
<clipPath id="clip0">
<rect width="172" height="63" fill="white"/>
</clipPath>
</defs>
</svg>
