<svg width="14" height="14" viewBox="0 0 14 14" fill="none" xmlns="http://www.w3.org/2000/svg">
<path d="M7 0C3.13306 0 0 3.13306 0 7C0 10.8669 3.13306 14 7 14C10.8669 14 14 10.8669 14 7C14 3.13306 10.8669 0 7 0ZM10.4323 8.8375C10.5649 8.97016 10.5649 9.18468 10.4323 9.31734L9.31452 10.4323C9.18185 10.5649 8.96734 10.5649 8.83468 10.4323L7 8.58064L5.1625 10.4323C5.02984 10.5649 4.81532 10.5649 4.68266 10.4323L3.56774 9.31452C3.43508 9.18185 3.43508 8.96734 3.56774 8.83468L5.41935 7L3.56774 5.1625C3.43508 5.02984 3.43508 4.81532 3.56774 4.68266L4.68548 3.56492C4.81814 3.43226 5.03266 3.43226 5.16532 3.56492L7 5.41935L8.8375 3.56774C8.97016 3.43508 9.18468 3.43508 9.31734 3.56774L10.4351 4.68548C10.5677 4.81814 10.5677 5.03266 10.4351 5.16532L8.58064 7L10.4323 8.8375Z" fill="#FD6C79"/>
</svg>
