<svg width="54" height="20" viewBox="0 0 54 20" fill="none" xmlns="http://www.w3.org/2000/svg">
<path d="M7.38041 19.8797C6.26873 19.7295 5.40562 19.4701 4.43204 18.9855C2.20177 17.8865 0.931271 15.7773 0.806983 12.9855C0.689601 10.4053 1.43533 7.66814 2.76796 5.80467C4.46656 3.4156 7.15946 2.09137 9.96283 2.26202C11.6269 2.35758 12.7041 2.8627 13.4498 3.89341C13.8503 4.44631 13.9607 4.71252 14.085 5.40194C14.3474 6.89681 14.0643 8.50773 13.4498 8.98554C12.925 9.38827 12.0205 9.4497 11.5026 9.10841C11.0952 8.8422 11.0193 8.56233 11.1505 7.74323C11.2955 6.79442 11.2748 6.01627 11.0952 5.67497C10.5497 4.65109 9.03758 4.47362 7.47017 5.25177C6.82802 5.57259 5.92349 6.37804 5.48157 7.01285C5.12943 7.5248 4.70823 8.37121 4.48727 9.00602C4.1006 10.1186 3.9487 12.5896 4.19037 13.7705C4.39061 14.733 4.9499 15.6749 5.67491 16.2483C6.04777 16.5418 6.95231 16.9582 7.58756 17.1152C8.30566 17.3063 9.72116 17.3678 10.6326 17.2585C11.544 17.1493 13.0769 16.7602 14.2646 16.3507L14.4441 16.2824V15.5111C14.451 14.3644 14.6374 13.5384 15.0931 12.6442C15.3901 12.064 15.611 11.7842 16.2186 11.2313C16.8608 10.6579 17.5237 10.3234 18.3039 10.1869C19.2982 10.0094 20.0992 10.105 20.8656 10.4872C21.3144 10.7125 21.9911 11.3951 22.3087 11.9343C22.5366 12.3234 22.799 13.0811 22.8542 13.5043C22.9094 13.9002 22.9163 13.9002 23.8692 13.7295C24.394 13.634 24.4907 13.593 24.5873 13.436C25.0154 12.7534 25.4642 12.1255 25.6921 11.8934C26.8383 10.7125 28.1226 10.0913 29.4207 10.0845C30.0284 10.0845 30.1872 10.1596 30.3529 10.5487L30.491 10.8695L31.1608 10.849C31.7615 10.8285 31.8512 10.8422 32.0584 10.9855C32.1896 11.0743 32.3277 11.2381 32.3622 11.3473C32.452 11.5999 32.3553 12.378 32.0722 13.8046C31.8581 14.8558 31.6993 15.8251 31.6165 16.5213C31.5405 17.2039 31.796 17.6067 32.2517 17.4974C32.4727 17.436 33.0113 17.0401 33.391 16.6579L33.6465 16.3985L33.6879 15.3814C33.7363 13.9821 33.9572 13.2244 34.5856 12.2688C34.9446 11.7159 35.4072 11.2654 36.0494 10.8354C36.6708 10.4258 37.1749 10.2347 37.8378 10.1664C39.2118 10.0163 40.1509 10.4463 40.6135 11.4429C40.7654 11.75 40.7999 11.948 40.8207 12.4599C40.8552 13.2381 40.7654 13.6203 40.4478 14.0981C40.2683 14.3712 40.1233 14.5009 39.8885 14.6033C39.5018 14.7739 38.984 14.7466 38.7078 14.5418C38.4178 14.3234 38.3763 14.0981 38.5213 13.3746C38.6387 12.8012 38.6387 12.7125 38.549 12.5487C38.473 12.4121 38.3901 12.3644 38.1692 12.3507C37.9344 12.3371 37.8308 12.3712 37.5823 12.5555C36.9954 12.9992 36.6087 13.7773 36.4706 14.7944C36.3049 16.0708 36.657 17.0196 37.4718 17.4428C37.7894 17.5998 37.9068 17.6271 38.4523 17.6271C38.9771 17.6203 39.1497 17.593 39.5433 17.4292C40.1095 17.1971 40.8759 16.7056 41.3592 16.2756L41.7045 15.9616L41.7873 14.0981C41.9461 10.4804 42.4778 7.53162 43.4997 4.62379C43.7483 3.90706 44.3698 2.60332 44.6529 2.20741C45.226 1.3883 46.0753 0.664759 46.6553 0.494111C47.1731 0.343941 47.9741 0.357593 48.3331 0.535066C48.9408 0.821755 49.4932 1.61356 49.6658 2.42584C49.8384 3.25178 49.7072 4.68522 49.3551 5.79784C49.1341 6.48726 48.1881 8.43947 47.8636 8.86267C47.7393 9.0265 47.4838 9.37462 47.2974 9.634C46.8003 10.3302 45.9372 11.3883 45.1776 12.2415L44.5079 12.9992L44.4802 13.7773L44.4595 14.5623L44.8324 13.8388C46.0614 11.4565 47.546 10.1528 49.0582 10.1391C49.6105 10.1323 49.9351 10.2347 50.1767 10.4804C50.6808 10.9992 50.6463 11.8251 49.9903 14.8968C49.5967 16.7193 49.5898 17.2654 49.9558 17.4565C50.3977 17.6954 50.8672 17.3473 52.5589 15.5248C52.8765 15.1903 53.0423 15.1084 53.3737 15.1493C53.712 15.1835 53.8847 15.5316 53.8847 16.1596C53.8847 16.808 53.7742 17.1425 53.3806 17.6476C52.8351 18.3439 51.8063 19.163 50.9225 19.6067C50.2113 19.9616 49.0789 20.0845 48.3884 19.8797C47.3319 19.5725 46.8141 18.5077 46.9867 16.9923C47.0212 16.692 47.1386 15.948 47.256 15.3336C47.546 13.7637 47.546 13.7773 47.4977 13.634C47.4286 13.4224 47.2974 13.4702 46.9522 13.8115C46.5931 14.1664 46.165 14.849 45.9164 15.4497C45.8267 15.6681 45.6541 16.0845 45.5367 16.3643C45.4124 16.6442 45.1914 17.2927 45.0395 17.7978C44.6321 19.122 44.4526 19.4224 43.8588 19.7432C43.5757 19.8933 43.3824 19.9411 42.975 19.9684C42.5192 19.9889 42.4295 19.9753 42.2154 19.8319C41.9876 19.6817 41.8909 19.5043 41.7528 18.9787L41.6976 18.7534L41.1797 19.0606C39.0323 20.337 36.5258 20.2824 34.8963 18.9377L34.4475 18.5691L34.2058 18.7466C34.0746 18.8421 33.8329 19.0333 33.681 19.163C32.8317 19.8865 31.7615 20.1527 30.9467 19.8456C30.4772 19.6749 30.1388 19.3951 29.7798 18.8899L29.4898 18.4804L29.0479 18.9582C28.7095 19.32 28.4748 19.4974 28.0743 19.6886C27.5702 19.9411 27.5288 19.9479 26.8245 19.9479C25.8371 19.9411 25.4297 19.791 24.8221 19.1766C24.1592 18.5145 23.9176 17.866 23.9176 16.7534V16.0913L23.4204 16.1323C22.799 16.1869 22.6954 16.2347 22.6402 16.5145C22.5573 16.8968 22.2121 17.6408 21.929 18.0503C21.1004 19.2449 20.037 19.8729 18.6975 19.9616C17.5237 20.0435 16.6536 19.7363 15.7353 18.9309C15.5834 18.7944 15.4384 18.6852 15.4177 18.6852C15.3901 18.6852 15.0517 18.7944 14.6581 18.9309C13.3255 19.3882 12.9526 19.4906 12.0274 19.6681C10.3771 19.9889 8.70614 20.064 7.38041 19.8797ZM27.8395 17.634C28.0674 17.5111 28.4057 17.163 28.606 16.8285C28.7095 16.6579 28.896 15.907 29.1998 14.4531C29.4483 13.2859 29.6486 12.3029 29.6486 12.2688C29.6486 12.1528 29.3517 12.1937 28.9926 12.3644C28.2814 12.692 27.439 13.6408 27.0731 14.5214C26.6726 15.4906 26.5414 16.7056 26.7831 17.2108C26.9971 17.6613 27.4459 17.8387 27.8395 17.634ZM19.3327 17.3746C19.7332 17.1015 20.0854 16.6101 20.2304 16.1186L20.3339 15.75L19.968 15.3951C19.3258 14.7603 19.0151 13.9889 19.0151 13.006C19.0151 12.4121 19.0013 12.3985 18.5732 12.576C18.007 12.808 17.5237 13.5043 17.3165 14.3644C17.1646 14.9855 17.2198 16.1323 17.4132 16.5691C17.8344 17.5316 18.6077 17.8524 19.3327 17.3746ZM45.5091 9.06745C45.6748 8.85585 46.0683 8.17326 46.3929 7.5521C47.2629 5.8661 47.5736 4.79443 47.5184 3.66816C47.4907 3.0743 47.3872 2.74666 47.1731 2.61697C47.0834 2.56236 47.0143 2.58284 46.8693 2.71253C46.6138 2.94461 46.0407 4.15962 45.9164 4.733C45.8543 4.99238 45.7024 5.62037 45.5643 6.12548C45.3364 6.97872 44.9774 8.77394 44.8738 9.57257L44.8255 9.91386L45.0257 9.68178C45.1293 9.55209 45.3502 9.27905 45.5091 9.06745Z" fill="#274160"/>
</svg>
