<svg width="37" height="18" viewBox="0 0 37 18" fill="none" xmlns="http://www.w3.org/2000/svg">
<path d="M4.31416 17.8932C3.63748 17.6816 3.46486 17.2175 3.527 15.8045C3.56843 14.9103 3.64439 14.3984 4.25892 10.7806C4.70774 8.13218 4.95631 6.15267 5.06679 4.43254C5.14274 3.25165 4.92179 2.85575 4.27963 3.0264C3.58915 3.20387 2.8158 3.81138 1.98722 4.81479C1.6765 5.18339 1.36578 5.51786 1.29673 5.55881C1.22769 5.59294 1.03435 5.62707 0.868632 5.62707C0.626962 5.62707 0.523389 5.58612 0.385292 5.44277C-0.401862 4.62366 0.212671 3.26531 2.11841 1.62026C3.19557 0.691935 4.16225 0.289206 5.33608 0.275554C6.38562 0.268729 6.84134 0.453028 7.28325 1.06736C7.65611 1.5793 7.80802 2.0776 7.84254 2.91718C7.87016 3.56565 7.7804 4.70557 7.67683 5.11513C7.65611 5.19021 7.84254 4.84209 8.09112 4.3438C8.69184 3.14244 9.16827 2.43937 9.83114 1.7636C10.7288 0.855757 11.799 0.343814 12.9729 0.255077C14.3262 0.152688 15.3412 0.705587 15.8798 1.83869C16.1767 2.48033 16.2734 2.96497 16.2803 3.88646V4.70557L16.7636 3.7636C17.3712 2.56906 17.5163 2.37111 18.2275 1.69535C19.2148 0.760195 20.1401 0.336988 21.3623 0.255077C24.1242 0.0776029 25.2152 2.02982 24.5247 5.93424C24.4625 6.26871 24.1518 7.77724 23.8204 9.27894C23.0885 12.6851 23.0263 13.0195 23.0609 13.7977C23.0885 14.3642 23.1092 14.4598 23.2956 14.7192C23.5718 15.1151 23.9792 15.3267 24.4418 15.3267C24.9459 15.3267 25.3256 15.1765 25.9609 14.726L26.5133 14.3369L26.4857 13.9547C26.3959 12.7192 26.7895 11.0673 27.3833 10.2004C27.9357 9.39498 29.0197 8.56904 29.869 8.30966C30.0486 8.25505 30.4283 8.18679 30.7114 8.15949C32.5274 7.96836 33.7496 8.80795 33.9636 10.3984C34.1155 11.511 33.7565 12.5281 32.9348 13.3335C32.3065 13.9479 31.8369 14.2004 30.5802 14.6168L29.5031 14.9649L29.7655 15.2038C30.3869 15.7909 31.5193 15.8933 32.6103 15.47C33.4803 15.1287 34.2536 14.6168 35.0753 13.8387L35.821 13.1288L36.1387 13.1492C36.6427 13.1834 36.7394 13.3608 36.7325 14.2141C36.7325 14.6509 36.691 14.9718 36.6289 15.1356C36.256 16.0093 34.226 17.3676 32.6793 17.784C31.9405 17.9888 30.2902 18.0093 29.6067 17.825C28.9645 17.6543 28.2602 17.2926 27.7354 16.8694L27.2797 16.4939L26.7342 16.9103C26.4373 17.1356 26.0023 17.4086 25.7745 17.511C24.5109 18.098 22.9987 18.1322 21.887 17.5997C20.8513 17.1014 20.1953 16.2414 19.9744 15.0946C19.7258 13.8113 19.8846 12.6646 20.9065 8.18679C21.4796 5.68851 21.597 5.06052 21.597 4.5008C21.597 3.85916 21.5073 3.58612 21.2173 3.30626C20.9894 3.08783 20.9342 3.06735 20.5751 3.07418C20.0849 3.07418 19.712 3.25848 19.1941 3.74312C18.1377 4.73288 17.4748 5.90011 16.7291 8.09805C16.0041 10.2482 15.5553 12.2346 15.1134 15.197C14.8786 16.7601 14.6714 17.4496 14.3676 17.6885C14.1053 17.9001 13.5874 18.0025 13.0212 17.9683C12.4619 17.9274 12.2547 17.8045 12.0407 17.395C11.8681 17.0741 11.8128 15.9956 11.9164 15.1834C12.1581 13.4086 12.2547 12.7943 12.5309 11.3267C13.8083 4.5281 13.8498 3.64073 12.959 3.18339C12.31 2.84892 11.4952 3.16974 10.5147 4.15268C9.85186 4.80796 9.67923 5.1083 8.84375 6.95813C8.18778 8.3984 7.42135 11.081 7.13825 12.9308C6.77229 15.2857 6.53062 16.6987 6.42704 17.0195C6.28204 17.4837 5.99204 17.8182 5.66061 17.9137C5.32917 18.0025 4.64559 17.9956 4.31416 17.8932ZM29.8 12.9308C30.4491 12.6782 31.0843 12.2414 31.3536 11.8591C31.8369 11.1834 31.5745 10.3233 30.891 10.3233C30.1867 10.3301 29.5169 11.081 29.2959 12.1049C29.1924 12.5895 29.1578 13.1356 29.2269 13.1356C29.2476 13.1356 29.5031 13.04 29.8 12.9308Z" fill="#274160"/>
</svg>
