<svg width="32" height="32" viewBox="0 0 32 32" fill="none" xmlns="http://www.w3.org/2000/svg">
<path d="M18.3944 29.5056L16.8088 31.0911C16.1375 31.7625 15.0519 31.7625 14.3877 31.0911L0.503515 17.2141C-0.167838 16.5428 -0.167838 15.4572 0.503515 14.793L14.3877 0.908789C15.059 0.237435 16.1446 0.237435 16.8088 0.908789L18.3944 2.49433C19.0729 3.17282 19.0586 4.27984 18.3658 4.94405L9.75963 13.1431H30.2859C31.2358 13.1431 32 13.9073 32 14.8572V17.1427C32 18.0926 31.2358 18.8568 30.2859 18.8568H9.75963L18.3658 27.0559C19.0657 27.7201 19.08 28.8271 18.3944 29.5056Z" fill="black"/>
</svg>
