<svg width="28" height="28" viewBox="0 0 28 28" fill="none" xmlns="http://www.w3.org/2000/svg">
<circle cx="14" cy="14" r="14" fill="#F0F0F0"/>
<path d="M14.6641 8.51774C14.4836 7.84321 13.5405 7.81181 13.3359 8.51774C12.273 12.2152 10 13.22 10 15.826C10 18.1332 11.7891 20 14 20C16.2109 20 18 18.1332 18 15.826C18 13.2069 15.732 12.2321 14.6641 8.51774ZM14 18.5C12.5966 18.5 11.4545 17.3223 11.4545 15.875C11.4545 15.6678 11.6173 15.5 11.8182 15.5C12.0191 15.5 12.1818 15.6678 12.1818 15.875C12.1818 16.9088 12.9975 17.75 14 17.75C14.2009 17.75 14.3636 17.9178 14.3636 18.125C14.3636 18.3322 14.2009 18.5 14 18.5Z" fill="black"/>
</svg>
