<svg width="28" height="28" viewBox="0 0 28 28" fill="none" xmlns="http://www.w3.org/2000/svg">
<circle cx="14" cy="14" r="14" fill="#F0F0F0"/>
<path d="M18.4789 10.6243C17.6773 10.6361 17.0188 11.29 17.0023 12.0915C16.9906 12.6611 17.2953 13.1603 17.7523 13.4228V16.0618C17.7523 17.4048 16.5758 18.4993 15.1273 18.4993C13.7211 18.4993 12.568 17.4658 12.5047 16.1743C14.2109 15.8228 15.5 14.3087 15.5 12.4993V8.85716C15.5 8.58997 15.3102 8.35794 15.0477 8.30638L13.5734 8.01106C13.2688 7.95013 12.9734 8.147 12.9125 8.45169L12.8375 8.81966C12.7766 9.12435 12.9734 9.41966 13.2781 9.4806L13.9977 9.62356V12.4689C13.9977 13.7087 13.0086 14.7353 11.7688 14.747C10.5172 14.7587 9.49766 13.7462 9.49766 12.497V9.62591L10.2172 9.48294C10.5219 9.422 10.7188 9.12669 10.6578 8.822L10.5852 8.45403C10.5242 8.14935 10.2289 7.95247 9.92422 8.01341L8.45234 8.30403C8.18984 8.35794 8 8.58763 8 8.85716V12.4993C8 14.3111 9.29141 15.8275 11.0023 16.1743C11.0633 18.2931 12.8891 19.9993 15.125 19.9993C17.3984 19.9993 19.25 18.2322 19.25 16.0618V13.4228C19.6977 13.1626 20 12.6798 20 12.1243C20 11.2876 19.3156 10.6126 18.4789 10.6243ZM18.5 12.4993C18.2937 12.4993 18.125 12.3306 18.125 12.1243C18.125 11.9181 18.2937 11.7493 18.5 11.7493C18.7063 11.7493 18.875 11.9181 18.875 12.1243C18.875 12.3306 18.7063 12.4993 18.5 12.4993Z" fill="black"/>
</svg>
