<svg width="17" height="17" viewBox="0 0 17 17" fill="none" xmlns="http://www.w3.org/2000/svg">
<path d="M16.7589 14.6915L13.4503 11.3828C13.301 11.2335 13.0985 11.1505 12.8861 11.1505H12.3452C13.2611 9.97904 13.8054 8.50558 13.8054 6.90269C13.8054 3.08962 10.7158 0 6.90269 0C3.08962 0 0 3.08962 0 6.90269C0 10.7158 3.08962 13.8054 6.90269 13.8054C8.50558 13.8054 9.97904 13.2611 11.1505 12.3452V12.8861C11.1505 13.0985 11.2335 13.301 11.3828 13.4503L14.6915 16.7589C15.0034 17.0709 15.5078 17.0709 15.8165 16.7589L16.7556 15.8198C17.0676 15.5078 17.0676 15.0034 16.7589 14.6915ZM6.90269 11.1505C4.55644 11.1505 2.65488 9.25226 2.65488 6.90269C2.65488 4.55644 4.55312 2.65488 6.90269 2.65488C9.24894 2.65488 11.1505 4.55312 11.1505 6.90269C11.1505 9.24895 9.25226 11.1505 6.90269 11.1505Z" fill="#717D8B"/>
</svg>
