<svg width="45" height="45" viewBox="0 0 45 45" fill="none" xmlns="http://www.w3.org/2000/svg">
<circle cx="22.5" cy="22.5" r="22.5" fill="#C4F5A6"/>
<path d="M29.625 15.375H28.6609C29.2702 16.4245 29.625 17.639 29.625 18.9375C29.625 22.8663 26.4288 26.0625 22.5 26.0625C18.5712 26.0625 15.375 22.8663 15.375 18.9375C15.375 17.639 15.7298 16.4245 16.3391 15.375H15.375C14.0654 15.375 13 16.4404 13 17.75V29.625C13 30.9346 14.0654 32 15.375 32H29.625C30.9346 32 32 30.9346 32 29.625V17.75C32 16.4404 30.9346 15.375 29.625 15.375ZM22.5 24.875C25.7794 24.875 28.4375 22.2169 28.4375 18.9375C28.4375 15.6581 25.7794 13 22.5 13C19.2206 13 16.5625 15.6581 16.5625 18.9375C16.5625 22.2169 19.2206 24.875 22.5 24.875ZM22.4889 19.2366L23.735 16.3287C23.8649 16.0255 24.2152 15.8864 24.5154 16.0166C24.8167 16.1458 24.9563 16.495 24.8275 16.7959L23.578 19.7109C23.8259 19.9766 23.9844 20.3272 23.9844 20.7188C23.9844 21.5385 23.3197 22.2031 22.5 22.2031C21.6803 22.2031 21.0156 21.5385 21.0156 20.7188C21.0156 19.9031 21.6747 19.2429 22.4889 19.2366Z" fill="#7EC552" fill-opacity="0.8"/>
</svg>