<svg width="28" height="28" viewBox="0 0 28 28" fill="none" xmlns="http://www.w3.org/2000/svg">
<circle cx="14" cy="14" r="14" fill="#F0F0F0"/>
<path d="M18.5 9.5H17.8911C18.2759 10.1628 18.5 10.9299 18.5 11.75C18.5 14.2313 16.4813 16.25 14 16.25C11.5187 16.25 9.5 14.2313 9.5 11.75C9.5 10.9299 9.72406 10.1628 10.1089 9.5H9.5C8.67289 9.5 8 10.1729 8 11V18.5C8 19.3271 8.67289 20 9.5 20H18.5C19.3271 20 20 19.3271 20 18.5V11C20 10.1729 19.3271 9.5 18.5 9.5ZM14 15.5C16.0712 15.5 17.75 13.8212 17.75 11.75C17.75 9.67883 16.0712 8 14 8C11.9288 8 10.25 9.67883 10.25 11.75C10.25 13.8212 11.9288 15.5 14 15.5ZM13.993 11.9389L14.78 10.1023C14.862 9.91086 15.0833 9.82297 15.2729 9.90523C15.4632 9.9868 15.5513 10.2073 15.47 10.3974L14.6809 12.2384C14.8374 12.4062 14.9375 12.6277 14.9375 12.875C14.9375 13.3927 14.5177 13.8125 14 13.8125C13.4823 13.8125 13.0625 13.3927 13.0625 12.875C13.0625 12.3598 13.4787 11.9429 13.993 11.9389Z" fill="black"/>
</svg>
