<svg width="45" height="45" viewBox="0 0 45 45" fill="none" xmlns="http://www.w3.org/2000/svg">
<path d="M45 22.5C45 34.9264 34.9264 45 22.5 45C10.0736 45 0 34.9264 0 22.5C0 10.0736 10.0736 0 22.5 0C34.9264 0 45 10.0736 45 22.5ZM19.8974 34.4136L36.591 17.72C37.1578 17.1532 37.1578 16.234 36.591 15.6672L34.5381 13.6143C33.9713 13.0474 33.0521 13.0474 32.4852 13.6143L18.871 27.2284L12.5148 20.8723C11.948 20.3054 11.0288 20.3054 10.4619 20.8723L8.40901 22.9251C7.84216 23.492 7.84216 24.4111 8.40901 24.978L17.8445 34.4135C18.4114 34.9804 19.3305 34.9804 19.8974 34.4136Z" fill="#47B881"/>
</svg>
