<svg width="273" height="196" viewBox="0 0 273 196" fill="none" xmlns="http://www.w3.org/2000/svg">
<path d="M45.2943 164.317C42.5472 163.941 40.4144 163.293 38.0086 162.082C32.4974 159.336 29.3579 154.065 29.0508 147.088C28.7607 140.64 30.6035 133.799 33.8966 129.142C38.0939 123.172 44.7483 119.863 51.6757 120.289C55.7877 120.528 58.4495 121.79 60.2922 124.366C61.2819 125.748 61.5549 126.413 61.862 128.136C62.5104 131.872 61.8108 135.898 60.2922 137.092C58.9955 138.098 56.7603 138.252 55.4806 137.399C54.4739 136.733 54.2862 136.034 54.6104 133.987C54.9687 131.616 54.9176 129.671 54.4739 128.818C53.126 126.26 49.3893 125.816 45.5161 127.761C43.9293 128.562 41.6941 130.575 40.6021 132.162C39.7319 133.441 38.6911 135.556 38.1451 137.143C37.1896 139.923 36.8142 146.098 37.4114 149.05C37.9062 151.455 39.2883 153.809 41.0799 155.242C42.0012 155.975 44.2364 157.016 45.8062 157.408C47.5807 157.886 51.0785 158.039 53.3307 157.766C55.583 157.493 59.3709 156.521 62.3056 155.498L62.7492 155.327V153.399C62.7663 150.534 63.227 148.47 64.3531 146.235C65.0868 144.785 65.6328 144.086 67.1343 142.704C68.7211 141.271 70.3591 140.435 72.2872 140.094C74.7442 139.65 76.7234 139.889 78.6174 140.844C79.7264 141.407 81.3986 143.113 82.1834 144.461C82.7465 145.433 83.3949 147.327 83.5314 148.384C83.6679 149.374 83.6849 149.374 86.0396 148.947C87.3363 148.708 87.5752 148.606 87.8141 148.214C88.8719 146.508 89.981 144.938 90.5441 144.358C93.3764 141.407 96.55 139.855 99.7578 139.838C101.259 139.838 101.652 140.026 102.061 140.998L102.402 141.8L104.058 141.749C105.542 141.697 105.764 141.732 106.276 142.09C106.6 142.311 106.941 142.721 107.026 142.994C107.248 143.625 107.009 145.57 106.31 149.135C105.781 151.762 105.388 154.184 105.184 155.924C104.996 157.63 105.627 158.636 106.753 158.363C107.299 158.21 108.63 157.22 109.569 156.265L110.2 155.617L110.302 153.075C110.422 149.578 110.968 147.685 112.521 145.297C113.408 143.915 114.551 142.789 116.138 141.714C117.673 140.691 118.919 140.213 120.557 140.043C123.952 139.667 126.273 140.742 127.416 143.233C127.791 144 127.877 144.495 127.928 145.774C128.013 147.719 127.791 148.674 127.007 149.868C126.563 150.551 126.205 150.875 125.625 151.131C124.669 151.557 123.389 151.489 122.707 150.977C121.99 150.431 121.888 149.868 122.246 148.06C122.536 146.627 122.536 146.405 122.314 145.996C122.127 145.655 121.922 145.536 121.376 145.501C120.796 145.467 120.54 145.553 119.926 146.013C118.475 147.122 117.52 149.067 117.179 151.608C116.769 154.798 117.639 157.169 119.653 158.227C120.438 158.619 120.728 158.687 122.076 158.687C123.372 158.67 123.799 158.602 124.771 158.193C126.171 157.613 128.064 156.385 129.259 155.31L130.112 154.525L130.317 149.868C130.709 140.827 132.023 133.458 134.548 126.191C135.162 124.4 136.698 121.142 137.398 120.153C138.814 118.106 140.913 116.298 142.346 115.871C143.625 115.496 145.605 115.53 146.492 115.973C147.993 116.69 149.358 118.669 149.785 120.699C150.212 122.763 149.887 126.345 149.017 129.125C148.471 130.848 146.134 135.727 145.332 136.785C145.025 137.194 144.393 138.064 143.933 138.712C142.704 140.452 140.571 143.096 138.694 145.228L137.039 147.122L136.971 149.067L136.92 151.028L137.841 149.22C140.878 143.267 144.547 140.009 148.284 139.975C149.649 139.957 150.45 140.213 151.048 140.827C152.293 142.124 152.208 144.188 150.587 151.864C149.614 156.419 149.597 157.783 150.502 158.261C151.594 158.858 152.754 157.988 156.934 153.434C157.719 152.598 158.129 152.393 158.948 152.495C159.784 152.581 160.21 153.451 160.21 155.02C160.21 156.64 159.937 157.476 158.965 158.739C157.617 160.479 155.074 162.526 152.89 163.634C151.133 164.521 148.335 164.828 146.628 164.317C144.018 163.549 142.738 160.888 143.165 157.101C143.25 156.35 143.54 154.491 143.83 152.956C144.547 149.032 144.547 149.067 144.427 148.708C144.257 148.18 143.933 148.299 143.079 149.152C142.192 150.039 141.134 151.745 140.52 153.246C140.298 153.792 139.872 154.832 139.582 155.532C139.275 156.231 138.729 157.852 138.353 159.114C137.346 162.423 136.903 163.174 135.435 163.976C134.736 164.351 134.258 164.47 133.251 164.538C132.125 164.59 131.904 164.556 131.375 164.197C130.812 163.822 130.573 163.379 130.231 162.065L130.095 161.502L128.815 162.27C123.509 165.46 117.315 165.323 113.288 161.963L112.179 161.042L111.582 161.485C111.258 161.724 110.661 162.201 110.285 162.526C108.187 164.334 105.542 164.999 103.529 164.231C102.368 163.805 101.532 163.106 100.645 161.843L99.9284 160.82L98.8364 162.014C98.0004 162.918 97.4202 163.361 96.4306 163.839C95.1851 164.47 95.0827 164.487 93.3423 164.487C90.9024 164.47 89.8957 164.095 88.3942 162.56C86.7562 160.905 86.159 159.285 86.159 156.504V154.849L84.9305 154.952C83.3949 155.088 83.1389 155.208 83.0024 155.907C82.7977 156.862 81.9446 158.722 81.245 159.745C79.1975 162.73 76.5699 164.3 73.2597 164.521C70.3591 164.726 68.2092 163.958 65.9399 161.946C65.5646 161.604 65.2062 161.332 65.1551 161.332C65.0868 161.332 64.2507 161.604 63.2782 161.946C59.9851 163.089 59.0637 163.344 56.7774 163.788C52.6994 164.59 48.5703 164.777 45.2943 164.317ZM95.8505 158.705C96.4136 158.397 97.2496 157.528 97.7444 156.692C98.0004 156.265 98.461 154.389 99.2118 150.755C99.826 147.838 100.321 145.382 100.321 145.297C100.321 145.007 99.5872 145.109 98.6999 145.536C96.9425 146.354 94.8609 148.725 93.9566 150.926C92.9669 153.348 92.6427 156.385 93.2399 157.647C93.7689 158.773 94.8779 159.216 95.8505 158.705ZM74.8295 158.056C75.8191 157.374 76.6893 156.146 77.0476 154.918L77.3036 153.996L76.3992 153.109C74.8124 151.523 74.0446 149.595 74.0446 147.139C74.0446 145.655 74.0105 145.621 72.9526 146.064C71.5535 146.644 70.3591 148.384 69.8472 150.534C69.4719 152.086 69.6084 154.952 70.0861 156.043C71.1269 158.449 73.0379 159.25 74.8295 158.056ZM139.513 137.296C139.923 136.768 140.895 135.062 141.697 133.509C143.847 129.296 144.615 126.618 144.479 123.803C144.41 122.319 144.154 121.5 143.625 121.176C143.404 121.04 143.233 121.091 142.875 121.415C142.243 121.995 140.827 125.031 140.52 126.464C140.367 127.113 139.991 128.682 139.65 129.944C139.087 132.077 138.2 136.563 137.944 138.559L137.824 139.412L138.319 138.832C138.575 138.507 139.121 137.825 139.513 137.296Z" fill="white"/>
<path d="M163.742 164.351C162.07 163.822 161.643 162.662 161.797 159.131C161.899 156.896 162.087 155.617 163.605 146.576C164.715 139.957 165.329 135.011 165.602 130.712C165.789 127.761 165.243 126.771 163.657 127.198C161.95 127.641 160.039 129.16 157.992 131.667C157.224 132.588 156.456 133.424 156.286 133.526C156.115 133.612 155.637 133.697 155.228 133.697C154.631 133.697 154.375 133.595 154.033 133.236C152.088 131.189 153.607 127.795 158.316 123.684C160.978 121.364 163.367 120.357 166.267 120.323C168.861 120.306 169.987 120.767 171.079 122.302C172 123.581 172.376 124.827 172.461 126.925C172.529 128.545 172.307 131.394 172.051 132.418C172 132.605 172.461 131.735 173.075 130.49C174.56 127.488 175.737 125.731 177.375 124.042C179.593 121.773 182.238 120.494 185.138 120.272C188.483 120.016 190.991 121.398 192.322 124.23C193.055 125.833 193.294 127.044 193.311 129.347V131.394L194.506 129.04C196.007 126.055 196.365 125.56 198.123 123.871C200.563 121.534 202.849 120.477 205.869 120.272C212.694 119.829 215.39 124.707 213.684 134.465C213.53 135.301 212.763 139.07 211.944 142.823C210.135 151.335 209.981 152.171 210.067 154.116C210.135 155.532 210.186 155.771 210.647 156.419C211.329 157.408 212.336 157.937 213.479 157.937C214.725 157.937 215.663 157.562 217.233 156.436L218.598 155.463L218.53 154.508C218.308 151.421 219.28 147.293 220.748 145.126C222.113 143.113 224.792 141.049 226.89 140.401C227.334 140.264 228.272 140.094 228.972 140.026C233.459 139.548 236.479 141.646 237.008 145.621C237.384 148.401 236.496 150.943 234.466 152.956C232.913 154.491 231.753 155.122 228.648 156.163L225.986 157.033L226.634 157.63C228.17 159.097 230.968 159.353 233.664 158.295C235.814 157.442 237.725 156.163 239.755 154.218L241.598 152.444L242.383 152.495C243.629 152.581 243.867 153.024 243.85 155.156C243.85 156.248 243.748 157.05 243.594 157.459C242.673 159.643 237.657 163.037 233.835 164.078C232.009 164.59 227.931 164.641 226.242 164.18C224.655 163.754 222.915 162.85 221.618 161.792L220.492 160.854L219.144 161.894C218.41 162.457 217.335 163.14 216.772 163.396C213.65 164.863 209.913 164.948 207.166 163.617C204.607 162.372 202.986 160.223 202.44 157.357C201.825 154.15 202.218 151.284 204.743 140.094C206.159 133.851 206.449 132.281 206.449 130.882C206.449 129.279 206.228 128.597 205.511 127.897C204.948 127.351 204.811 127.3 203.924 127.317C202.713 127.317 201.791 127.778 200.512 128.989C197.901 131.462 196.263 134.379 194.42 139.872C192.629 145.246 191.52 150.209 190.428 157.613C189.848 161.519 189.336 163.242 188.585 163.839C187.937 164.368 186.657 164.624 185.258 164.538C183.876 164.436 183.364 164.129 182.835 163.106C182.408 162.304 182.272 159.609 182.528 157.579C183.125 153.144 183.364 151.608 184.046 147.941C187.203 130.951 187.305 128.733 185.104 127.59C183.5 126.754 181.487 127.556 179.064 130.012C177.426 131.65 177 132.401 174.935 137.023C173.314 140.623 171.42 147.327 170.721 151.949C169.816 157.835 169.219 161.366 168.963 162.167C168.605 163.327 167.888 164.163 167.069 164.402C166.25 164.624 164.561 164.607 163.742 164.351ZM226.72 151.949C228.324 151.318 229.893 150.227 230.559 149.271C231.753 147.583 231.105 145.433 229.416 145.433C227.675 145.45 226.02 147.327 225.474 149.885C225.218 151.097 225.133 152.461 225.303 152.461C225.355 152.461 225.986 152.222 226.72 151.949Z" fill="white"/>
<path d="M100.065 105.039C99.9285 104.834 99.7408 105.176 102.522 100.928C108.238 92.2283 110.132 89.3113 110.115 89.2089C110.098 89.1407 109.296 88.5607 108.323 87.9125C107.009 87.0255 105.849 86.0361 103.87 84.0403C101.123 81.2939 99.4337 79.1787 98.1028 76.8928C97.7103 76.1935 97.1132 75.1529 96.789 74.59C96.0553 73.3106 94.5197 69.6942 93.9566 67.9031C92.0797 61.9668 91.7043 54.5294 92.967 48.2519C94.3661 41.3263 98.0175 34.3665 103 29.1296C108.443 23.415 115.455 19.4575 123.389 17.6152C128.133 16.5235 136.408 16.6429 141.049 17.8711C149.103 20.0204 155.603 23.8756 160.927 29.6925C161.951 30.8013 162.957 31.9613 163.162 32.2683C167.189 38.1705 169.27 42.8274 170.414 48.4055C170.857 50.623 170.874 50.896 170.874 56.0817C170.874 61.2333 170.857 61.5574 170.414 63.8432C169.816 66.9137 168.605 70.513 167.257 73.2253C166.438 74.8629 164.561 78.0187 163.555 79.4516C162.582 80.8163 159.545 84.1426 157.583 85.9849C156.525 86.9743 151.372 90.4371 149.717 91.2559C147.311 92.4671 144.291 93.6441 142.499 94.0706C140.554 94.5311 135.231 95.947 130.01 97.3799C128.269 97.8746 125.863 98.5057 124.635 98.8128C123.424 99.1198 121.53 99.5975 120.455 99.8874C119.38 100.177 117.759 100.587 116.872 100.774C115.984 100.979 113.8 101.559 112.009 102.054C110.234 102.549 108.238 103.094 107.59 103.231C106.941 103.384 105.081 103.896 103.443 104.357C100.15 105.295 100.219 105.278 100.065 105.039ZM145.127 71.2295C144.871 67.4255 143.66 63.9285 141.561 60.8922C140.059 58.7257 138.302 57.4975 135.299 56.5764C133.627 56.0476 130.044 55.9964 128.303 56.474C126.853 56.8664 124.481 58.0264 123.56 58.7769C122.622 59.5445 120.796 62.1545 120.045 63.8091C118.902 66.2996 118.066 69.8989 118.066 72.3383V72.9694H131.648H145.246L145.127 71.2295ZM134.122 51.7148C135.418 51.3224 136.255 50.7936 137.381 49.6507C138.916 48.0643 139.786 46.0514 139.786 44.0556C139.769 41.1557 138.421 38.7675 135.811 37.0617C134.429 36.1576 133.2 35.7823 131.631 35.7823C129.498 35.7823 127.757 36.5499 125.898 38.2899C124.072 39.9957 123.082 42.7933 123.509 45.0962C124.055 48.0472 126.324 50.7254 129.054 51.6807C130.197 52.073 132.842 52.0901 134.122 51.7148Z" fill="white"/>
</svg>

