<svg width="31" height="35" viewBox="0 0 31 35" fill="none" xmlns="http://www.w3.org/2000/svg">
<path d="M3.03496 34.3852C2.98209 34.3068 2.9094 34.4375 3.98658 32.8097C6.20043 29.4757 6.93398 28.3578 6.92737 28.3186C6.92076 28.2925 6.61016 28.0702 6.23348 27.8218C5.72462 27.4818 5.27524 27.1027 4.50866 26.3378C3.44469 25.2853 2.79045 24.4747 2.27498 23.5987C2.12299 23.3307 1.89169 22.9319 1.76613 22.7162C1.48196 22.2259 0.887196 20.84 0.669115 20.1536C-0.05782 17.8786 -0.203207 15.0283 0.285822 12.6226C0.82772 9.96847 2.24194 7.30126 4.17162 5.29431C6.27974 3.10432 8.99583 1.58767 12.0688 0.881643C13.9059 0.463257 17.1111 0.509018 18.9086 0.979702C22.0278 1.8034 24.5456 3.28083 26.6075 5.51004C27.004 5.93496 27.3939 6.3795 27.4732 6.49717C29.0328 8.75907 29.8391 10.5437 30.2818 12.6814C30.4536 13.5313 30.4602 13.6359 30.4602 15.6232C30.4602 17.5975 30.4536 17.7217 30.2818 18.5977C30.0505 19.7744 29.5813 21.1538 29.0592 22.1932C28.742 22.8208 28.0151 24.0302 27.6252 24.5793C27.2485 25.1023 26.0722 26.377 25.3122 27.0831C24.9025 27.4622 22.9067 28.7893 22.2657 29.1031C21.3339 29.5672 20.1642 30.0183 19.4703 30.1817C18.7169 30.3583 16.6551 30.9008 14.6329 31.45C13.9588 31.6396 13.027 31.8814 12.5512 31.9991C12.082 32.1168 11.3485 32.2998 10.9321 32.411C10.5158 32.5221 9.88798 32.679 9.54434 32.7509C9.20069 32.8293 8.3548 33.0516 7.66091 33.2412C6.97363 33.4308 6.20043 33.64 5.94931 33.6923C5.69819 33.7511 4.97786 33.9472 4.34344 34.1237C3.068 34.4833 3.09444 34.4767 3.03496 34.3852ZM20.488 21.4283C20.3889 19.9705 19.9197 18.6304 19.1068 17.4667C18.5253 16.6365 17.8446 16.1658 16.6815 15.8128C16.0339 15.6101 14.6461 15.5905 13.972 15.7736C13.4103 15.9239 12.4917 16.3685 12.1349 16.6561C11.7714 16.9503 11.0643 17.9505 10.7735 18.5846C10.3307 19.539 10.0069 20.9184 10.0069 21.8532V22.0951H15.2673H20.5343L20.488 21.4283ZM16.2255 13.9497C16.7278 13.7993 17.0516 13.5967 17.4878 13.1587C18.0825 12.5507 18.4196 11.7793 18.4196 11.0144C18.4129 9.90309 17.8909 8.98787 16.8798 8.33415C16.3445 7.98767 15.8687 7.84385 15.2607 7.84385C14.4346 7.84385 13.7606 8.13803 13.0402 8.80483C12.3331 9.45856 11.9498 10.5307 12.115 11.4132C12.3265 12.5442 13.2054 13.5705 14.2628 13.9366C14.7056 14.087 15.7299 14.0935 16.2255 13.9497Z" fill="#274160"/>
</svg>