<svg width="402" height="148" viewBox="0 0 402 148" fill="none" xmlns="http://www.w3.org/2000/svg">
<g clip-path="url(#clip0)">
<path d="M137.238 106.069C133.8 105.599 131.131 104.787 128.121 103.27C121.224 99.8292 117.295 93.2258 116.911 84.4853C116.548 76.4073 118.854 67.8378 122.975 62.0037C128.227 54.5241 136.555 50.3782 145.224 50.9125C150.369 51.2117 153.7 52.7931 156.006 56.02C157.245 57.751 157.586 58.5844 157.971 60.7428C158.782 65.4229 157.907 70.4663 156.006 71.9623C154.384 73.2231 151.587 73.4155 149.985 72.3469C148.725 71.5135 148.49 70.6373 148.896 68.0729C149.345 65.1024 149.281 62.6662 148.725 61.5976C147.039 58.3921 142.362 57.8365 137.516 60.2727C135.53 61.2771 132.733 63.7988 131.366 65.7862C130.277 67.389 128.975 70.0389 128.292 72.0264C127.096 75.5097 126.626 83.2458 127.373 86.9429C127.993 89.9561 129.722 92.9052 131.964 94.7003C133.117 95.6192 135.914 96.9228 137.879 97.4144C140.099 98.0127 144.476 98.2051 147.295 97.8631C150.113 97.5212 154.853 96.3031 158.526 95.0209L159.081 94.8072V92.3923C159.102 88.8021 159.679 86.2163 161.088 83.4168C162.006 81.6003 162.69 80.7241 164.569 78.9931C166.554 77.198 168.604 76.1509 171.017 75.7234C174.091 75.1678 176.568 75.467 178.938 76.6637C180.326 77.369 182.419 79.506 183.401 81.1943C184.106 82.4124 184.917 84.7845 185.088 86.1094C185.259 87.3489 185.28 87.3489 188.226 86.8147C189.849 86.5155 190.148 86.3873 190.447 85.8957C191.771 83.7587 193.159 81.7926 193.863 81.066C197.408 77.369 201.379 75.4243 205.393 75.4029C207.272 75.4029 207.764 75.638 208.276 76.8561L208.703 77.8605L210.774 77.7964C212.632 77.7323 212.909 77.775 213.55 78.2238C213.956 78.5016 214.383 79.0145 214.489 79.3564C214.767 80.1471 214.468 82.5833 213.593 87.0497C212.931 90.3408 212.44 93.3754 212.183 95.5551C211.949 97.6922 212.739 98.953 214.148 98.6111C214.831 98.4188 216.496 97.1793 217.671 95.9825L218.461 95.1705L218.589 91.9863C218.738 87.6054 219.422 85.2333 221.365 82.2414C222.475 80.5104 223.906 79.1 225.891 77.7536C227.813 76.4714 229.372 75.873 231.422 75.6593C235.671 75.1892 238.574 76.5355 240.005 79.6556C240.475 80.6173 240.581 81.237 240.646 82.8398C240.752 85.276 240.475 86.4727 239.493 87.9687C238.937 88.8235 238.489 89.2295 237.763 89.5501C236.567 90.0843 234.966 89.9988 234.112 89.3577C233.215 88.6739 233.087 87.9687 233.535 85.7034C233.898 83.9083 233.898 83.6305 233.621 83.1176C233.386 82.6902 233.13 82.5406 232.446 82.4979C231.72 82.4551 231.4 82.562 230.631 83.139C228.817 84.528 227.621 86.9643 227.194 90.1484C226.681 94.1447 227.77 97.1152 230.29 98.4401C231.272 98.9317 231.635 99.0171 233.322 99.0171C234.945 98.9958 235.478 98.9103 236.695 98.3974C238.446 97.6708 240.816 96.1321 242.311 94.7858L243.379 93.8028L243.635 87.9687C244.126 76.6424 245.77 67.4104 248.93 58.3066C249.699 56.0627 251.62 51.981 252.496 50.7415C254.268 48.1771 256.894 45.9118 258.688 45.3775C260.289 44.9074 262.766 44.9501 263.876 45.5058C265.755 46.4033 267.464 48.8823 267.997 51.4254C268.531 54.0112 268.126 58.4989 267.037 61.9823C266.353 64.1407 263.428 70.2526 262.425 71.5776C262.04 72.0905 261.25 73.1804 260.674 73.9925C259.136 76.1722 256.467 79.4846 254.119 82.1559L252.047 84.528L251.962 86.9643L251.898 89.4218L253.051 87.1566C256.852 79.6983 261.442 75.6166 266.118 75.5739C267.827 75.5525 268.83 75.873 269.577 76.6424C271.136 78.2665 271.029 80.8523 269.001 90.469C267.784 96.1749 267.763 97.8845 268.894 98.4829C270.261 99.2308 271.713 98.1409 276.944 92.4351C277.926 91.3879 278.439 91.1315 279.463 91.2597C280.51 91.3665 281.043 92.4564 281.043 94.4225C281.043 96.4527 280.702 97.4998 279.485 99.0812C277.798 101.261 274.617 103.825 271.883 105.215C269.684 106.326 266.182 106.71 264.047 106.069C260.78 105.108 259.179 101.774 259.713 97.0297C259.82 96.0894 260.183 93.76 260.546 91.8367C261.442 86.9215 261.442 86.9643 261.293 86.5155C261.079 85.853 260.674 86.0026 259.606 87.0711C258.496 88.1824 257.172 90.3194 256.403 92.2C256.126 92.8838 255.592 94.1874 255.229 95.0636C254.845 95.9398 254.161 97.97 253.692 99.5514C252.432 103.697 251.877 104.638 250.04 105.642C249.165 106.112 248.567 106.262 247.307 106.347C245.898 106.411 245.621 106.369 244.959 105.92C244.254 105.45 243.955 104.894 243.528 103.248L243.357 102.543L241.756 103.505C235.115 107.501 227.365 107.33 222.326 103.12L220.938 101.966L220.19 102.522C219.785 102.821 219.037 103.419 218.568 103.825C215.941 106.091 212.632 106.924 210.112 105.962C208.66 105.428 207.614 104.552 206.504 102.971L205.607 101.688L204.24 103.184C203.194 104.317 202.468 104.873 201.23 105.471C199.671 106.262 199.543 106.283 197.365 106.283C194.312 106.262 193.052 105.792 191.173 103.868C189.123 101.795 188.376 99.7651 188.376 96.2817V94.2088L186.839 94.337C184.917 94.508 184.597 94.6576 184.426 95.5338C184.17 96.7305 183.102 99.0599 182.227 100.342C179.664 104.082 176.376 106.048 172.234 106.326C168.604 106.582 165.914 105.621 163.074 103.099C162.604 102.671 162.156 102.33 162.092 102.33C162.006 102.33 160.96 102.671 159.743 103.099C155.622 104.531 154.469 104.851 151.608 105.407C146.505 106.411 141.338 106.646 137.238 106.069ZM200.504 99.0385C201.208 98.6538 202.255 97.5639 202.874 96.5168C203.194 95.9825 203.771 93.6318 204.71 89.0799C205.479 85.4256 206.098 82.3483 206.098 82.2414C206.098 81.8781 205.18 82.0063 204.07 82.5406C201.87 83.5664 199.265 86.5368 198.134 89.2936C196.895 92.3282 196.49 96.1321 197.237 97.7135C197.899 99.124 199.287 99.6796 200.504 99.0385ZM174.198 98.2264C175.437 97.3716 176.526 95.833 176.974 94.2943L177.294 93.1403L176.163 92.029C174.177 90.0416 173.216 87.6267 173.216 84.5494C173.216 82.6902 173.173 82.6474 171.85 83.2031C170.099 83.9297 168.604 86.1094 167.963 88.8021C167.494 90.7468 167.665 94.337 168.262 95.7047C169.565 98.7179 171.956 99.7224 174.198 98.2264ZM255.144 72.2187C255.656 71.5562 256.873 69.4192 257.877 67.4745C260.567 62.196 261.528 58.8409 261.357 55.3148C261.272 53.4555 260.951 52.4298 260.289 52.0237C260.012 51.8528 259.798 51.9169 259.35 52.3229C258.56 53.0495 256.788 56.8534 256.403 58.6485C256.211 59.4606 255.741 61.4267 255.314 63.0081C254.61 65.6794 253.499 71.2998 253.179 73.8001L253.03 74.8686L253.649 74.142C253.969 73.736 254.652 72.8812 255.144 72.2187Z" fill="black"/>
<path d="M285.463 106.112C283.371 105.45 282.837 103.996 283.029 99.5727C283.157 96.7731 283.392 95.1704 285.293 83.8441C286.68 75.5524 287.449 69.355 287.791 63.9696C288.026 60.2725 287.342 59.0331 285.357 59.5673C283.221 60.123 280.83 62.0249 278.268 65.1664C277.307 66.3204 276.346 67.3675 276.133 67.4957C275.919 67.6026 275.321 67.7094 274.809 67.7094C274.061 67.7094 273.741 67.5812 273.314 67.1324C270.88 64.568 272.78 60.3153 278.673 55.165C282.004 52.2587 284.994 50.9978 288.623 50.9551C291.869 50.9337 293.278 51.5107 294.645 53.434C295.798 55.0368 296.267 56.5968 296.374 59.2254C296.46 61.2556 296.182 64.8244 295.862 66.1067C295.798 66.3417 296.374 65.2518 297.143 63.6918C299 59.9306 300.474 57.7295 302.524 55.6138C305.299 52.7715 308.609 51.1688 312.239 50.8909C316.424 50.5704 319.562 52.3014 321.228 55.8489C322.146 57.8577 322.445 59.375 322.466 62.26V64.8244L323.961 61.8753C325.84 58.1355 326.288 57.5158 328.488 55.4001C331.541 52.4724 334.402 51.1474 338.181 50.8909C346.722 50.3353 350.096 56.4472 347.961 68.6711C347.768 69.7182 346.808 74.4411 345.783 79.1426C343.519 89.8064 343.327 90.8535 343.434 93.2898C343.519 95.0635 343.583 95.3627 344.16 96.1748C345.014 97.4143 346.274 98.0767 347.704 98.0767C349.263 98.0767 350.437 97.6066 352.402 96.1961L354.11 94.978L354.025 93.7813C353.747 89.9132 354.964 84.7416 356.8 82.0276C358.508 79.5059 361.861 76.9201 364.487 76.108C365.042 75.937 366.216 75.7233 367.092 75.6378C372.707 75.0395 376.487 77.668 377.149 82.6473C377.618 86.1307 376.508 89.3149 373.967 91.8366C372.024 93.7599 370.572 94.5506 366.686 95.8542L363.355 96.9441L364.167 97.6921C366.088 99.5299 369.59 99.8505 372.964 98.5255C375.654 97.457 378.045 95.8542 380.586 93.418L382.892 91.1955L383.875 91.2596C385.433 91.3664 385.732 91.9221 385.711 94.5934C385.711 95.9611 385.583 96.9655 385.391 97.4784C384.238 100.214 377.96 104.466 373.177 105.77C370.893 106.411 365.789 106.475 363.676 105.898C361.69 105.364 359.512 104.231 357.889 102.906L356.48 101.731L354.793 103.035C353.875 103.74 352.53 104.595 351.825 104.915C347.918 106.753 343.242 106.86 339.804 105.193C336.601 103.633 334.573 100.94 333.89 97.3501C333.121 93.3325 333.612 89.7423 336.772 75.7233C338.544 67.9018 338.907 65.9357 338.907 64.1833C338.907 62.1745 338.63 61.3197 337.733 60.4435C337.028 59.7597 336.858 59.6955 335.747 59.7169C334.231 59.7169 333.078 60.2939 331.477 61.8112C328.21 64.9099 326.16 68.5642 323.854 75.4455C321.612 82.1772 320.224 88.396 318.858 97.6707C318.132 102.565 317.491 104.723 316.552 105.471C315.74 106.133 314.139 106.454 312.388 106.347C310.659 106.219 310.018 105.834 309.356 104.552C308.822 103.548 308.652 100.171 308.972 97.628C309.719 92.0717 310.018 90.1483 310.872 85.5537C314.822 64.2688 314.95 61.4907 312.196 60.0588C310.189 59.0117 307.669 60.0161 304.637 63.0934C302.588 65.145 302.054 66.0853 299.47 71.8767C297.442 76.3858 295.072 84.7844 294.196 90.5757C293.065 97.9485 292.317 102.372 291.997 103.377C291.549 104.83 290.652 105.877 289.627 106.176C288.602 106.454 286.488 106.433 285.463 106.112ZM364.273 90.5757C366.281 89.785 368.245 88.4173 369.078 87.2206C370.572 85.1049 369.761 82.4123 367.647 82.4123C365.469 82.4336 363.398 84.7844 362.715 87.9899C362.394 89.5072 362.288 91.2168 362.501 91.2168C362.565 91.2168 363.355 90.9177 364.273 90.5757Z" fill="black"/>
<path d="M9.38482 132.698C9.22133 132.453 8.99654 132.862 12.3275 127.766C19.1734 117.328 21.4418 113.828 21.4213 113.705C21.4009 113.623 20.4404 112.927 19.2756 112.15C17.7021 111.085 16.3125 109.898 13.9419 107.504C10.6518 104.208 8.6287 101.671 7.03473 98.9281C6.56471 98.0889 5.84947 96.8405 5.46119 96.1651C4.58247 94.6301 2.74327 90.2911 2.0689 88.1421C-0.179011 81.0197 -0.628592 72.0962 0.883637 64.5644C2.55935 56.2549 6.93255 47.9045 12.8997 41.6212C19.4187 34.7649 27.8177 30.0166 37.3202 27.8062C43.0013 26.4963 52.9125 26.6396 58.471 28.1132C68.1165 30.692 75.9025 35.3175 82.2783 42.2966C83.5045 43.627 84.7102 45.0187 84.9554 45.3871C89.7782 52.4686 92.2713 58.056 93.6405 64.7486C94.1718 67.4093 94.1922 67.7368 94.1922 73.9587C94.1922 80.1396 94.1718 80.5285 93.6405 83.271C92.9252 86.955 91.4743 91.2735 89.8599 94.5277C88.879 96.4925 86.6311 100.279 85.4254 101.998C84.2606 103.635 80.6231 107.626 78.273 109.837C77.006 111.024 70.8344 115.179 68.8522 116.161C65.9708 117.614 62.3537 119.026 60.208 119.538C57.8783 120.091 51.5024 121.789 45.2492 123.509C43.1647 124.102 40.2833 124.859 38.812 125.228C37.361 125.596 35.0927 126.169 33.8053 126.517C32.5178 126.865 30.5765 127.356 29.5138 127.581C28.4512 127.827 25.8354 128.523 23.6897 129.116C21.5644 129.71 19.1734 130.365 18.3969 130.529C17.6203 130.713 15.3929 131.327 13.4311 131.88C9.48699 133.005 9.56874 132.985 9.38482 132.698ZM63.355 92.1331C63.0485 87.569 61.5976 83.3734 59.084 79.7303C57.2857 77.131 55.1808 75.6574 51.5842 74.5522C49.5815 73.9177 45.29 73.8563 43.2056 74.4294C41.4686 74.9001 38.6281 76.2919 37.5245 77.1924C36.4006 78.1134 34.214 81.2448 33.3148 83.2301C31.9456 86.2182 30.9443 90.5367 30.9443 93.4634V94.2207H47.211H63.4981L63.355 92.1331ZM50.1741 68.7192C51.7272 68.2484 52.7286 67.614 54.0773 66.2427C55.9165 64.3393 56.9587 61.9242 56.9587 59.5296C56.9383 56.0503 55.3239 53.1849 52.1972 51.1383C50.542 50.0535 49.0706 49.6032 47.1905 49.6032C44.6361 49.6032 42.5517 50.5243 40.3242 52.6119C38.1376 54.6585 36.9523 58.0151 37.4632 60.7781C38.1172 64.3188 40.8351 67.5321 44.1048 68.6782C45.474 69.149 48.6415 69.1694 50.1741 68.7192Z" fill="black"/>
</g>
<defs>
<clipPath id="clip0">
<rect width="402" height="148" fill="white"/>
</clipPath>
</defs>
</svg>
