<svg width="172" height="63" viewBox="0 0 172 63" fill="none" xmlns="http://www.w3.org/2000/svg">
<g clip-path="url(#clip0)">
<path d="M58.719 45.1512C57.2481 44.9511 56.1062 44.6054 54.818 43.9595C51.8672 42.4949 50.1863 39.684 50.0218 35.9634C49.8665 32.5248 50.8532 28.877 52.6163 26.3935C54.8637 23.2096 58.4266 21.4448 62.1357 21.6723C64.3374 21.7996 65.7626 22.4728 66.7492 23.8464C67.2791 24.5832 67.4253 24.938 67.5897 25.8568C67.9369 27.849 67.5623 29.9959 66.7492 30.6326C66.0549 31.1694 64.8581 31.2512 64.173 30.7964C63.634 30.4416 63.5335 30.0686 63.707 28.977C63.8989 27.7126 63.8715 26.6755 63.634 26.2207C62.9122 24.8562 60.9115 24.6196 58.8377 25.6567C57.9881 26.0842 56.7913 27.1577 56.2067 28.0037C55.7407 28.6859 55.1835 29.8139 54.8911 30.6599C54.3795 32.1427 54.1785 35.4358 54.4983 37.0095C54.7632 38.2922 55.5032 39.5475 56.4625 40.3117C56.9558 40.7028 58.1526 41.2577 58.993 41.467C59.9431 41.7217 61.816 41.8036 63.0219 41.658C64.2278 41.5125 66.2559 40.9939 67.8272 40.4481L68.0648 40.3572V39.3292C68.0739 37.801 68.3206 36.7002 68.9235 35.5085C69.3163 34.7353 69.6087 34.3623 70.4126 33.6255C71.2622 32.8614 72.1393 32.4156 73.1716 32.2337C74.4871 31.9972 75.5469 32.1245 76.5609 32.6339C77.1547 32.9341 78.05 33.8438 78.4703 34.5625C78.7718 35.081 79.1189 36.0907 79.192 36.6547C79.2651 37.1824 79.2742 37.1824 80.5349 36.9549C81.2292 36.8276 81.3571 36.773 81.485 36.5638C82.0515 35.6541 82.6453 34.8172 82.9468 34.5079C84.4633 32.9341 86.1625 32.1063 87.88 32.0972C88.6839 32.0972 88.8941 32.1973 89.1133 32.7158L89.296 33.1434L90.1822 33.1161C90.977 33.0888 91.0958 33.107 91.3698 33.298C91.5434 33.4163 91.7261 33.6346 91.7718 33.7801C91.8906 34.1167 91.7627 35.1538 91.3881 37.055C91.1049 38.4559 90.8948 39.7477 90.7851 40.6756C90.6847 41.5852 91.0227 42.1219 91.6256 41.9764C91.918 41.8945 92.6306 41.3669 93.133 40.8575L93.471 40.5118L93.5258 39.1564C93.5898 37.2915 93.8821 36.2818 94.7135 35.0082C95.1885 34.2714 95.8006 33.671 96.6502 33.0979C97.4725 32.5521 98.1394 32.2974 99.0164 32.2064C100.834 32.0063 102.077 32.5794 102.689 33.9075C102.89 34.3169 102.936 34.5807 102.963 35.2629C103.009 36.3 102.89 36.8094 102.47 37.4462C102.232 37.81 102.04 37.9829 101.73 38.1193C101.218 38.3468 100.533 38.3104 100.167 38.0375C99.7838 37.7464 99.729 37.4462 99.9208 36.4819C100.076 35.7178 100.076 35.5995 99.9574 35.3812C99.8569 35.1993 99.7472 35.1356 99.4549 35.1174C99.1443 35.0992 99.0072 35.1447 98.6784 35.3903C97.9018 35.9816 97.3902 37.0186 97.2075 38.3741C96.9883 40.0752 97.4542 41.3396 98.5322 41.9036C98.9524 42.1129 99.1077 42.1492 99.8295 42.1492C100.524 42.1401 100.752 42.1038 101.273 41.8854C102.022 41.5761 103.036 40.9212 103.676 40.3481L104.132 39.9296L104.242 37.4462C104.452 32.6249 105.156 28.695 106.508 24.8198C106.837 23.8646 107.659 22.1271 108.033 21.5995C108.792 20.5079 109.915 19.5436 110.683 19.3162C111.368 19.116 112.428 19.1342 112.903 19.3708C113.707 19.7528 114.437 20.8081 114.666 21.8906C114.894 22.9913 114.721 24.9016 114.255 26.3844C113.962 27.3032 112.711 29.9049 112.281 30.4689C112.117 30.6872 111.779 31.1512 111.532 31.4968C110.874 32.4247 109.733 33.8347 108.728 34.9718L107.841 35.9816L107.805 37.0186L107.777 38.0648L108.271 37.1005C109.897 33.9257 111.861 32.1882 113.862 32.17C114.593 32.1609 115.022 32.2974 115.342 32.6249C116.009 33.3162 115.963 34.4169 115.095 38.5105C114.574 40.9394 114.565 41.6671 115.049 41.9218C115.634 42.2402 116.255 41.7763 118.494 39.3474C118.914 38.9017 119.133 38.7925 119.572 38.8471C120.019 38.8926 120.248 39.3565 120.248 40.1934C120.248 41.0576 120.101 41.5034 119.581 42.1765C118.859 43.1044 117.498 44.196 116.328 44.7873C115.387 45.2604 113.889 45.4241 112.976 45.1512C111.578 44.7418 110.893 43.3227 111.121 41.3032C111.167 40.903 111.322 39.9114 111.477 39.0927C111.861 37.0004 111.861 37.0186 111.797 36.8276C111.706 36.5456 111.532 36.6093 111.075 37.0641C110.6 37.5371 110.034 38.4468 109.705 39.2473C109.586 39.5384 109.358 40.0934 109.203 40.4663C109.038 40.8393 108.746 41.7035 108.545 42.3767C108.006 44.1414 107.768 44.5417 106.983 44.9693C106.608 45.1694 106.352 45.2331 105.813 45.2695C105.21 45.2967 105.092 45.2786 104.808 45.0875C104.507 44.8874 104.379 44.6509 104.196 43.9504L104.123 43.6502L103.438 44.0596C100.597 45.7607 97.2806 45.6879 95.1246 43.8958L94.5308 43.4046L94.211 43.6411C94.0374 43.7685 93.7177 44.0232 93.5167 44.196C92.393 45.1603 90.977 45.5151 89.899 45.1057C89.2778 44.8783 88.8301 44.5053 88.3551 43.8322L87.9714 43.2863L87.3867 43.9231C86.939 44.4053 86.6284 44.6418 86.0986 44.8965C85.4317 45.2331 85.3768 45.2422 84.445 45.2422C83.1386 45.2331 82.5996 45.0329 81.7957 44.2142C80.9186 43.3318 80.5989 42.4676 80.5989 40.9848V40.1024L79.9411 40.157C79.1189 40.2298 78.9819 40.2935 78.9088 40.6665C78.7992 41.1759 78.3424 42.1674 77.9678 42.7132C76.8715 44.3052 75.4646 45.1421 73.6923 45.2604C72.1393 45.3695 70.9882 44.9602 69.7731 43.8867C69.5721 43.7048 69.3803 43.5592 69.3529 43.5592C69.3163 43.5592 68.8687 43.7048 68.348 43.8867C66.5848 44.4962 66.0915 44.6327 64.8673 44.8692C62.6838 45.2967 60.473 45.3968 58.719 45.1512ZM85.7879 42.1583C86.0894 41.9946 86.5371 41.5307 86.802 41.0849C86.939 40.8575 87.1857 39.8568 87.5877 37.9192C87.9166 36.3637 88.1815 35.0537 88.1815 35.0082C88.1815 34.8536 87.7887 34.9082 87.3136 35.1356C86.3726 35.5722 85.2581 36.8367 84.7739 38.0102C84.244 39.3019 84.0704 40.9212 84.3902 41.5943C84.6734 42.1947 85.2672 42.4312 85.7879 42.1583ZM74.5328 41.8127C75.0627 41.4488 75.5286 40.7938 75.7204 40.1388L75.8575 39.6476L75.3733 39.1746C74.5237 38.3286 74.1126 37.3006 74.1126 35.9907C74.1126 35.1993 74.0943 35.1811 73.5279 35.4176C72.7788 35.7269 72.1393 36.6547 71.8652 37.801C71.6642 38.6288 71.7373 40.157 71.9931 40.7392C72.5504 42.0219 73.5736 42.4494 74.5328 41.8127ZM109.166 30.7418C109.385 30.4598 109.906 29.5501 110.335 28.7223C111.487 26.4754 111.898 25.0472 111.825 23.5462C111.788 22.7548 111.651 22.3181 111.368 22.1453C111.249 22.0725 111.158 22.0998 110.966 22.2727C110.628 22.5819 109.87 24.2012 109.705 24.9653C109.623 25.311 109.422 26.1479 109.239 26.8211C108.938 27.9582 108.463 30.3506 108.326 31.415L108.262 31.8698L108.527 31.5605C108.664 31.3877 108.956 31.0238 109.166 30.7418Z" fill="#FAFAFC"/>
<path d="M122.138 45.1693C121.243 44.8873 121.014 44.2687 121.097 42.3856C121.152 41.1939 121.252 40.5117 122.065 35.6904C122.659 32.1608 122.988 29.5227 123.134 27.2303C123.234 25.6565 122.942 25.1289 122.093 25.3563C121.179 25.5928 120.156 26.4025 119.059 27.7397C118.648 28.2309 118.237 28.6767 118.146 28.7313C118.055 28.7767 117.799 28.8222 117.579 28.8222C117.26 28.8222 117.123 28.7677 116.94 28.5766C115.899 27.485 116.712 25.6747 119.233 23.4824C120.658 22.2452 121.937 21.7085 123.49 21.6903C124.879 21.6812 125.482 21.9268 126.067 22.7455C126.56 23.4278 126.761 24.0919 126.807 25.2108C126.843 26.075 126.724 27.5942 126.587 28.14C126.56 28.24 126.807 27.7761 127.135 27.112C127.93 25.511 128.561 24.574 129.438 23.6734C130.625 22.4635 132.041 21.7813 133.594 21.663C135.385 21.5266 136.728 22.2634 137.44 23.7735C137.833 24.6286 137.961 25.2745 137.97 26.5025V27.5942L138.61 26.3388C139.414 24.7468 139.606 24.483 140.547 23.5824C141.853 22.3362 143.077 21.7722 144.694 21.663C148.348 21.4265 149.792 24.0282 148.878 29.2316C148.796 29.6773 148.385 31.6877 147.946 33.689C146.978 38.2284 146.896 38.6741 146.942 39.7112C146.978 40.4662 147.005 40.5936 147.252 40.9392C147.618 41.4669 148.157 41.7489 148.769 41.7489C149.436 41.7489 149.938 41.5487 150.778 40.9483L151.509 40.4298L151.473 39.9204C151.354 38.2739 151.875 36.0724 152.66 34.9171C153.391 33.8437 154.826 32.743 155.949 32.3973C156.187 32.3245 156.689 32.2335 157.064 32.1972C159.467 31.9425 161.084 33.0614 161.367 35.1809C161.568 36.6637 161.093 38.0191 160.006 39.0926C159.174 39.9113 158.553 40.2479 156.89 40.8028L155.465 41.2667L155.812 41.5851C156.634 42.3674 158.133 42.5039 159.576 41.9399C160.727 41.485 161.75 40.8028 162.838 39.7657L163.824 38.8197L164.244 38.847C164.911 38.8924 165.039 39.129 165.03 40.2661C165.03 40.8483 164.975 41.2758 164.893 41.4941C164.4 42.6585 161.714 44.4688 159.667 45.0237C158.69 45.2966 156.507 45.3239 155.602 45.0783C154.753 44.8509 153.821 44.3687 153.126 43.8047L152.523 43.3044L151.802 43.8593C151.409 44.1595 150.833 44.5234 150.532 44.6598C148.86 45.4422 146.859 45.4877 145.388 44.7781C144.018 44.114 143.15 42.9678 142.858 41.4396C142.529 39.7294 142.739 38.2011 144.091 32.2335C144.849 28.9041 145.005 28.0672 145.005 27.3213C145.005 26.4661 144.886 26.1023 144.502 25.7293C144.201 25.4382 144.128 25.4109 143.653 25.42C143.004 25.42 142.511 25.6656 141.826 26.3115C140.428 27.6305 139.551 29.1861 138.564 32.1153C137.605 34.9808 137.011 37.628 136.426 41.576C136.116 43.6592 135.842 44.578 135.44 44.8964C135.093 45.1784 134.407 45.3148 133.658 45.2693C132.918 45.2148 132.644 45.051 132.361 44.5052C132.133 44.0776 132.06 42.6403 132.197 41.5578C132.516 39.1926 132.644 38.3739 133.01 36.4181C134.7 27.3576 134.755 26.175 133.576 25.5656C132.717 25.1198 131.639 25.5474 130.342 26.8573C129.465 27.7306 129.237 28.1309 128.131 30.5961C127.263 32.5156 126.249 36.0906 125.875 38.5559C125.39 41.6943 125.071 43.5773 124.934 44.0049C124.742 44.6235 124.358 45.0692 123.92 45.1966C123.481 45.3148 122.577 45.3057 122.138 45.1693ZM155.858 38.5559C156.717 38.2193 157.557 37.6371 157.913 37.1277C158.553 36.2271 158.206 35.0809 157.301 35.0809C156.37 35.09 155.483 36.0906 155.191 37.4551C155.054 38.101 155.008 38.8288 155.1 38.8288C155.127 38.8288 155.465 38.7014 155.858 38.5559Z" fill="#FAFAFC"/>
<path d="M4.01549 56.4864C3.94554 56.3819 3.84936 56.5561 5.27456 54.3868C8.20365 49.9436 9.17418 48.4538 9.16544 48.4015C9.1567 48.3667 8.74575 48.0705 8.24737 47.7394C7.57411 47.2864 6.97955 46.7811 5.9653 45.7617C4.55759 44.3591 3.69197 43.2788 3.00998 42.1113C2.80887 41.7541 2.50285 41.2227 2.33672 40.9352C1.96075 40.2818 1.17383 38.4348 0.885291 37.52C-0.0765003 34.4882 -0.268859 30.6896 0.378165 27.4836C1.09514 23.9464 2.96626 20.3918 5.51938 17.7172C8.30857 14.7986 11.9022 12.7774 15.9679 11.8365C18.3986 11.2789 22.6393 11.3399 25.0175 11.9672C29.1445 13.0649 32.4758 15.0338 35.2038 18.0047C35.7284 18.571 36.2442 19.1634 36.3492 19.3202C38.4126 22.3347 39.4794 24.7131 40.0652 27.562C40.2925 28.6946 40.3013 28.834 40.3013 31.4825C40.3013 34.1135 40.2925 34.2791 40.0652 35.4465C39.7592 37.0147 39.1384 38.853 38.4476 40.2382C38.0279 41.0746 37.0661 42.6863 36.5503 43.4182C36.0519 44.1151 34.4955 45.814 33.49 46.7549C32.9479 47.2602 30.3074 49.0288 29.4592 49.447C28.2264 50.0656 26.6788 50.6667 25.7607 50.8845C24.764 51.1197 22.036 51.8428 19.3604 52.5747C18.4686 52.8273 17.2357 53.1497 16.6062 53.3065C15.9854 53.4633 15.0149 53.7072 14.464 53.8554C13.9132 54.0035 13.0826 54.2126 12.6279 54.3084C12.1732 54.4129 11.054 54.7091 10.136 54.9618C9.22665 55.2145 8.20365 55.4932 7.87139 55.5629C7.53914 55.6414 6.58609 55.9027 5.74671 56.1379C4.0592 56.6171 4.09418 56.6084 4.01549 56.4864ZM27.1072 39.2189C26.9761 37.2761 26.3553 35.4901 25.2798 33.9393C24.5104 32.8328 23.6098 32.2056 22.0709 31.7351C21.2141 31.465 19.3779 31.4389 18.4861 31.6828C17.7429 31.8832 16.5275 32.4756 16.0554 32.859C15.5745 33.251 14.6389 34.584 14.2542 35.4291C13.6684 36.7011 13.2399 38.5393 13.2399 39.7852V40.1075H20.1998H27.1684L27.1072 39.2189ZM21.4676 29.2521C22.1321 29.0518 22.5606 28.7817 23.1376 28.198C23.9246 27.3877 24.3705 26.3597 24.3705 25.3404C24.3617 23.8593 23.671 22.6396 22.3332 21.7684C21.625 21.3066 20.9955 21.115 20.1911 21.115C19.0981 21.115 18.2063 21.507 17.2532 22.3956C16.3177 23.2669 15.8105 24.6957 16.0291 25.8718C16.3089 27.379 17.4718 28.7468 18.8708 29.2347C19.4566 29.4351 20.8119 29.4438 21.4676 29.2521Z" fill="#FAFAFC"/>
</g>
<defs>
<clipPath id="clip0">
<rect width="172" height="63" fill="white"/>
</clipPath>
</defs>
</svg>
